<svg id="Layer_1" fill="#EF7A2E" enable-background="new 0 0 512 512" height="512" viewBox="0 0 512 512" width="512" xmlns="http://www.w3.org/2000/svg"><g><path d="m176 120c8.82 0 16-7.18 16-16v-8c0-7.987.91-13.701-4.69-19.32-10.028-9.995-27.31-2.941-27.31 11.32v16c0 8.82 7.18 16 16 16z"/><path d="m224 120c8.82 0 16-7.18 16-16 0-14.124 0-32.164 0-40 0-4.27-1.67-8.29-4.69-11.32-10.028-9.995-27.31-2.941-27.31 11.32v40c0 8.82 7.18 16 16 16z"/><path d="m268.197 119.541c1.112.272 2.286-.181 2.975-1.095 3.183-4.217 7.269-7.643 10.728-9.546 1.497-.877 3.075-1.622 4.28-2.136 1.11-.473 1.835-1.551 1.828-2.758-.021-3.3-.008-13.449-.008-48.006 0-4.27-1.67-8.29-4.69-11.32-10.028-9.995-27.31-2.941-27.31 11.32v48c0 7.402 5.118 13.811 12.197 15.541z"/><path d="m336 72c0-4.27-1.67-8.29-4.69-11.32-10.028-9.995-27.31-2.941-27.31 11.32v29.02c0 1.646 1.334 2.98 2.98 2.98h26.04c1.646 0 2.98-1.334 2.98-2.98z"/><path d="m264.894 160h-136.894v76c0 19.659-15.744 35.622-35.304 35.993-20.179.383-36.696-16.52-36.696-36.703v-199.29c0-19.66 15.744-35.622 35.304-35.993 20.179-.383 36.696 16.52 36.696 36.703v59.29h13c1.657 0 3 1.343 3 3v5c0 28.443 34.055 42.175 53.895 23.335 1.158-1.099 2.971-1.185 4.13-.087 12.3 11.657 31.636 11.685 43.96-.008 1.124-1.066 2.913-1.06 4.04.004 3.406 3.217 7.5 5.672 11.988 7.156 1.312.434 2.169 1.68 2.073 3.058-.433 6.205.717 12.503 3.511 18.253.963 1.984-.497 4.289-2.703 4.289z"/><path d="m343.992 120c-48.026 0-44.453-.034-45.822.08-.388.046-.898.048-1.11.03-1.19.42-2.723.46-5.42 1.73-7.025 3.244-11.64 10.221-11.64 18.16 0 10.969 8.862 20 20 20h11.728c4.262 0 7.982 3.218 8.255 7.471.299 4.66-3.388 8.529-7.983 8.529h-152v37.75c0 5.03 1.54 9.85 4.46 13.93l28.09 39.33c4.87 6.81 7.45 14.84 7.45 23.24l-.986 218.736c-.008 1.662 1.338 3.014 3 3.014h106c1.652 0 2.993-1.335 3-2.986l.986-218.764c0-8.4 2.58-16.43 7.46-23.25l28.07-39.31c2.93-4.09 4.47-8.91 4.47-13.94v-85.75c0-4.418-3.59-8-8.008-8zm-95.992 232c0 4.42-3.58 8-8 8s-8-3.58-8-8v-64c0-4.42 3.58-8 8-8s8 3.58 8 8zm32 40.08c-.049 4.263-3.463 7.92-8.08 7.92-4.42-.05-7.97-3.67-7.92-8.08l1-96c.049-4.274 3.473-7.92 8.08-7.92 4.42.05 7.97 3.67 7.92 8.08zm8-176.08c-8.82 0-16 7.18-16 16 0 4.42-3.58 8-8 8s-8-3.58-8-8c0-17.64 14.36-32 32-32 4.42 0 8 3.58 8 8s-3.58 8-8 8z"/><path d="m420 0c-19.882 0-36 16.118-36 36v60h-28.994c-1.66 0-3.007 1.352-3.006 3.013.001 2.177.001 3.499 0 4.35-.002 1.187.704 2.248 1.788 2.733 8.362 3.742 14.212 12.156 14.212 21.904v29c0 1.657 1.343 3 3 3h13v76c0 20.039 16.409 36.346 36.642 35.994 19.74-.343 35.358-16.912 35.358-36.654v-199.34c0-19.882-16.118-36-36-36z"/><path d="m492 40c-11.046 0-20 8.954-20 20v152c0 11.046 8.954 20 20 20s20-8.954 20-20v-152c0-11.046-8.954-20-20-20z"/><path d="m20 40c-11.046 0-20 8.954-20 20v152c0 11.046 8.954 20 20 20s20-8.954 20-20v-152c0-11.046-8.954-20-20-20z"/></g></svg>